<svg width="48" height="48" viewBox="0 0 48 48" fill="none" xmlns="http://www.w3.org/2000/svg">
<circle opacity="0.25" cx="23.999" cy="24" r="24" fill="#FF2C56"/>
<path d="M35.3117 34.667C35.0589 34.6668 34.8113 34.5947 34.5979 34.4591C34.3844 34.3235 34.214 34.13 34.1063 33.9012C33.9987 33.6724 33.9584 33.4177 33.99 33.1668C34.0217 32.9159 34.124 32.6793 34.285 32.4843C36.2426 30.0903 37.3121 27.0929 37.3121 24.0003C37.3121 20.9078 36.2426 17.9104 34.285 15.5163C34.1735 15.3812 34.0897 15.2255 34.0383 15.058C33.987 14.8905 33.9691 14.7146 33.9858 14.5402C34.0024 14.3658 34.0533 14.1964 34.1354 14.0417C34.2175 13.8869 34.3293 13.7499 34.4644 13.6383C34.7372 13.4131 35.0883 13.3054 35.4405 13.3391C35.7927 13.3727 36.1171 13.5448 36.3424 13.8177C38.6911 16.6914 39.9742 20.2888 39.9742 24.0003C39.9742 27.7118 38.6911 31.3092 36.3424 34.183C36.217 34.3348 36.0595 34.4569 35.8813 34.5406C35.7031 34.6242 35.5086 34.6674 35.3117 34.667ZM13.5344 34.3617C13.6695 34.2502 13.7813 34.1133 13.8635 33.9586C13.9457 33.804 13.9966 33.6346 14.0133 33.4603C14.03 33.286 14.0122 33.11 13.9609 32.9426C13.9096 32.7751 13.8259 32.6194 13.7144 32.4843C11.7568 30.0903 10.6873 27.0929 10.6873 24.0003C10.6873 20.9078 11.7568 17.9104 13.7144 15.5163C13.8259 15.3813 13.9098 15.2257 13.9612 15.0583C14.0125 14.8909 14.0304 14.715 14.0139 14.5407C13.9973 14.3663 13.9465 14.197 13.8645 14.0423C13.7824 13.8876 13.6707 13.7505 13.5357 13.639C13.4007 13.5275 13.2451 13.4436 13.0777 13.3922C12.9103 13.3408 12.7344 13.3229 12.56 13.3395C12.3857 13.3561 12.2164 13.4069 12.0617 13.4889C11.9069 13.571 11.7699 13.6827 11.6584 13.8177C9.30891 16.6911 8.02539 20.2886 8.02539 24.0003C8.02539 27.712 9.30891 31.3095 11.6584 34.183C11.8836 34.4553 12.2077 34.627 12.5594 34.6605C12.9112 34.694 13.2618 34.5865 13.5344 34.3617ZM34.6664 24.0003C34.6632 26.8283 33.5384 29.5396 31.5387 31.5393C29.539 33.539 26.8277 34.6638 23.9997 34.667C9.88238 34.1657 9.88638 13.8323 23.9997 13.3337C26.8277 13.3368 29.539 14.4617 31.5387 16.4614C33.5384 18.4611 34.6632 21.1723 34.6664 24.0003ZM25.333 29.3337C25.333 28.98 25.1926 28.6409 24.9425 28.3909C24.6925 28.1408 24.3533 28.0003 23.9997 28.0003C23.6461 28.0003 23.307 28.1408 23.0569 28.3909C22.8069 28.6409 22.6664 28.98 22.6664 29.3337C22.6664 29.6873 22.8069 30.0264 23.0569 30.2765C23.307 30.5265 23.6461 30.667 23.9997 30.667C24.3533 30.667 24.6925 30.5265 24.9425 30.2765C25.1926 30.0264 25.333 29.6873 25.333 29.3337ZM25.333 18.667C25.333 18.3134 25.1926 17.9742 24.9425 17.7242C24.6925 17.4741 24.3533 17.3337 23.9997 17.3337C23.6461 17.3337 23.307 17.4741 23.0569 17.7242C22.8069 17.9742 22.6664 18.3134 22.6664 18.667V24.0003C22.6664 24.354 22.8069 24.6931 23.0569 24.9431C23.307 25.1932 23.6461 25.3337 23.9997 25.3337C24.3533 25.3337 24.6925 25.1932 24.9425 24.9431C25.1926 24.6931 25.333 24.354 25.333 24.0003V18.667Z" fill="#FF2C56"/>
</svg>
