<svg width="200" height="200" viewBox="0 0 200 200" fill="none" xmlns="http://www.w3.org/2000/svg">
<path d="M100 171.024C142.833 171.024 177.556 168.997 177.556 166.496C177.556 163.995 142.833 161.968 100 161.968C57.1671 161.968 22.4441 163.995 22.4441 166.496C22.4441 168.997 57.1671 171.024 100 171.024Z" fill="#F5F5F5"/>
<path d="M158.4 148.336H93.44C92.8015 148.344 92.1685 148.217 91.5819 147.965C90.9954 147.712 90.4684 147.339 90.0352 146.87C89.6019 146.401 89.272 145.846 89.0668 145.242C88.8616 144.637 88.7857 143.996 88.844 143.36L96.8 39.052C96.9239 37.7081 97.5394 36.4572 98.5284 35.539C99.5175 34.6208 100.811 34.0999 102.16 34.076H167.12C167.759 34.0677 168.392 34.1937 168.979 34.446C169.566 34.6983 170.093 35.0711 170.526 35.5404C170.96 36.0096 171.29 36.5647 171.495 37.1697C171.699 37.7747 171.775 38.416 171.716 39.052L163.76 143.36C163.635 144.704 163.02 145.954 162.031 146.872C161.042 147.79 159.749 148.311 158.4 148.336Z" fill="#005BD8"/>
<path opacity="0.5" d="M158.4 148.336H93.44C92.8015 148.344 92.1685 148.217 91.5819 147.965C90.9954 147.712 90.4684 147.339 90.0352 146.87C89.6019 146.401 89.272 145.846 89.0668 145.242C88.8616 144.637 88.7857 143.996 88.844 143.36L96.8 39.052C96.9239 37.7081 97.5394 36.4572 98.5284 35.539C99.5175 34.6208 100.811 34.0999 102.16 34.076H167.12C167.759 34.0677 168.392 34.1937 168.979 34.446C169.566 34.6983 170.093 35.0711 170.526 35.5404C170.96 36.0096 171.29 36.5647 171.495 37.1697C171.699 37.7747 171.775 38.416 171.716 39.052L163.76 143.36C163.635 144.704 163.02 145.954 162.031 146.872C161.042 147.79 159.749 148.311 158.4 148.336Z" fill="white"/>
<path d="M157.436 148.336H92.472C91.8335 148.344 91.2004 148.217 90.6139 147.965C90.0274 147.712 89.5004 147.339 89.0672 146.87C88.6339 146.401 88.304 145.846 88.0988 145.242C87.8936 144.637 87.8177 143.996 87.876 143.36L95.836 39.052C95.96 37.7075 96.576 36.456 97.5659 35.5377C98.5558 34.6194 99.8499 34.0989 101.2 34.076H166.16C166.799 34.0677 167.432 34.1937 168.019 34.446C168.606 34.6983 169.133 35.0711 169.566 35.5404C170 36.0096 170.33 36.5647 170.534 37.1697C170.739 37.7747 170.815 38.416 170.756 39.052L162.8 143.36C162.676 144.705 162.06 145.956 161.07 146.874C160.08 147.793 158.786 148.313 157.436 148.336Z" fill="#005BD8"/>
<path opacity="0.7" d="M157.436 148.336H92.472C91.8335 148.344 91.2004 148.217 90.6139 147.965C90.0274 147.712 89.5004 147.339 89.0672 146.87C88.6339 146.401 88.304 145.846 88.0988 145.242C87.8936 144.637 87.8177 143.996 87.876 143.36L95.836 39.052C95.96 37.7075 96.576 36.456 97.5659 35.5377C98.5558 34.6194 99.8499 34.0989 101.2 34.076H166.16C166.799 34.0677 167.432 34.1937 168.019 34.446C168.606 34.6983 169.133 35.0711 169.566 35.5404C170 36.0096 170.33 36.5647 170.534 37.1697C170.739 37.7747 170.815 38.416 170.756 39.052L162.8 143.36C162.676 144.705 162.06 145.956 161.07 146.874C160.08 147.793 158.786 148.313 157.436 148.336Z" fill="white"/>
<path d="M92.5998 146.676C92.1739 146.682 91.7514 146.599 91.3599 146.431C90.9684 146.263 90.6167 146.015 90.3276 145.702C90.0385 145.389 89.8186 145.019 89.6822 144.615C89.5457 144.212 89.4959 143.784 89.5358 143.36L97.3878 40.436C97.4687 39.5398 97.8784 38.7052 98.5379 38.093C99.1974 37.4807 100.06 37.1342 100.96 37.12H165.92C166.346 37.1137 166.768 37.1971 167.16 37.3649C167.551 37.5327 167.903 37.7812 168.192 38.094C168.481 38.4069 168.701 38.7771 168.837 39.1807C168.974 39.5842 169.024 40.0119 168.984 40.436L161.132 143.36C161.051 144.256 160.642 145.09 159.983 145.702C159.325 146.314 158.463 146.661 157.564 146.676H92.5998Z" fill="#005BD8"/>
<path opacity="0.2" d="M157.104 54.432H110.616C110.363 54.4354 110.113 54.3855 109.881 54.2858C109.649 54.186 109.44 54.0385 109.269 53.8529C109.098 53.6673 108.968 53.4477 108.887 53.2084C108.806 52.9691 108.776 52.7155 108.8 52.464C108.85 51.934 109.093 51.4408 109.483 51.0786C109.874 50.7164 110.384 50.5105 110.916 50.5H157.404C157.656 50.4961 157.907 50.5454 158.139 50.6448C158.371 50.7441 158.579 50.8912 158.75 51.0765C158.922 51.2618 159.052 51.4812 159.133 51.7202C159.214 51.9593 159.244 52.2128 159.22 52.464C159.173 52.9955 158.93 53.4906 158.539 53.854C158.149 54.2174 157.637 54.4233 157.104 54.432Z" fill="black"/>
<path opacity="0.3" d="M137.272 36.104H129.764C129.702 36.1048 129.64 36.0926 129.583 36.068C129.526 36.0435 129.475 36.0073 129.432 35.9616C129.39 35.916 129.358 35.862 129.338 35.8032C129.318 35.7443 129.31 35.6819 129.316 35.62C129.329 35.4897 129.389 35.3686 129.484 35.2795C129.58 35.1903 129.705 35.1393 129.836 35.136H137.348C137.41 35.1357 137.471 35.1484 137.528 35.1732C137.584 35.1979 137.635 35.2343 137.677 35.2798C137.719 35.3254 137.751 35.3792 137.77 35.4378C137.79 35.4963 137.798 35.5584 137.792 35.62C137.781 35.7509 137.722 35.873 137.626 35.9625C137.529 36.052 137.403 36.1025 137.272 36.104Z" fill="#005BD8"/>
<path d="M110.4 52.464C110.466 51.7683 110.385 51.0664 110.162 50.4041C109.939 49.7419 109.578 49.1342 109.104 48.6208C108.63 48.1074 108.053 47.6998 107.41 47.4246C106.768 47.1495 106.075 47.0129 105.376 47.024H152.576C153.275 47.0129 153.968 47.1495 154.61 47.4246C155.253 47.6998 155.83 48.1074 156.304 48.6208C156.778 49.1342 157.139 49.7419 157.362 50.4041C157.585 51.0664 157.666 51.7683 157.6 52.464H110.4Z" fill="#F0F0F0"/>
<path d="M105.388 47.024C103.912 47.0467 102.496 47.6151 101.414 48.6196C100.332 49.6241 99.6602 50.9935 99.5279 52.464L94.6919 115.852C94.5606 117.322 93.8896 118.692 92.8082 119.696C91.7268 120.701 90.3117 121.269 88.8359 121.292H136.036C137.512 121.269 138.928 120.701 140.01 119.696C141.092 118.692 141.764 117.322 141.896 115.852L146.732 52.464C146.863 50.9939 147.534 49.6244 148.616 48.6199C149.697 47.6153 151.112 47.0468 152.588 47.024H105.388Z" fill="white"/>
<path d="M131.008 115.852C130.941 116.548 131.022 117.25 131.246 117.912C131.469 118.574 131.83 119.182 132.304 119.695C132.778 120.209 133.355 120.616 133.997 120.891C134.64 121.167 135.333 121.303 136.032 121.292H88.8319C88.1331 121.303 87.4399 121.167 86.7975 120.891C86.155 120.616 85.5779 120.209 85.1037 119.695C84.6296 119.182 84.2691 118.574 84.0458 117.912C83.8225 117.25 83.7414 116.548 83.8079 115.852H131.008Z" fill="#F0F0F0"/>
<path d="M103.38 114.6C103.56 112.284 102.832 110.412 100.52 110.412H136.864C139.176 110.412 140.916 112.528 139.728 114.6H103.38Z" fill="#E0E0E0"/>
<path d="M131.008 115.852C131.136 114.38 131.806 113.007 132.888 112C133.97 110.993 135.386 110.423 136.864 110.4H89.6639C88.1881 110.423 86.773 110.991 85.6916 111.996C84.6102 113 83.9392 114.37 83.8079 115.84L131.008 115.852Z" fill="#F0F0F0"/>
<path d="M153.324 131.568H99.1439C98.9605 131.57 98.7787 131.534 98.6102 131.462C98.4417 131.39 98.2903 131.283 98.1659 131.148C98.0414 131.013 97.9466 130.854 97.8877 130.68C97.8288 130.507 97.807 130.323 97.8239 130.14C97.8593 129.755 98.0355 129.396 98.3189 129.132C98.6024 128.869 98.973 128.719 99.3599 128.712H153.544C153.727 128.71 153.908 128.747 154.076 128.819C154.244 128.892 154.395 128.999 154.519 129.134C154.643 129.268 154.738 129.427 154.796 129.601C154.855 129.774 154.877 129.958 154.86 130.14C154.825 130.525 154.648 130.884 154.365 131.148C154.081 131.411 153.711 131.561 153.324 131.568Z" fill="white"/>
<path d="M125.964 138.432H98.6199C98.4363 138.435 98.2542 138.399 98.0854 138.327C97.9166 138.255 97.765 138.148 97.6404 138.013C97.5158 137.879 97.421 137.719 97.3624 137.545C97.3037 137.371 97.2824 137.187 97.2999 137.004C97.3353 136.619 97.5115 136.26 97.7949 135.996C98.0783 135.733 98.449 135.583 98.8359 135.576H126.18C126.363 135.574 126.545 135.61 126.714 135.682C126.882 135.754 127.033 135.861 127.158 135.996C127.282 136.131 127.377 136.29 127.436 136.464C127.495 136.637 127.517 136.821 127.5 137.004C127.464 137.389 127.288 137.748 127.005 138.012C126.721 138.275 126.351 138.425 125.964 138.432Z" fill="white"/>
<path d="M144.896 138.432H133.82C133.636 138.435 133.454 138.399 133.285 138.327C133.117 138.255 132.965 138.148 132.84 138.013C132.716 137.879 132.621 137.719 132.562 137.545C132.504 137.371 132.482 137.187 132.5 137.004C132.535 136.619 132.711 136.26 132.995 135.996C133.278 135.733 133.649 135.583 134.036 135.576H145.112C145.295 135.574 145.477 135.611 145.645 135.683C145.813 135.756 145.964 135.863 146.088 135.997C146.213 136.132 146.308 136.291 146.367 136.464C146.426 136.638 146.448 136.822 146.432 137.004C146.396 137.389 146.22 137.748 145.937 138.012C145.653 138.275 145.283 138.425 144.896 138.432Z" fill="#FFD600"/>
<path d="M155.972 111.272L153.144 111.716C153.075 111.454 152.966 111.204 152.82 110.976C152.675 110.802 152.497 110.659 152.296 110.556L152.128 112.728C153.621 113.136 154.605 113.565 155.08 114.016C155.388 114.309 155.624 114.67 155.769 115.069C155.914 115.469 155.965 115.897 155.916 116.32C155.881 116.853 155.716 117.369 155.436 117.824C155.173 118.265 154.828 118.652 154.42 118.964C154.043 119.258 153.618 119.484 153.164 119.632C152.643 119.781 152.105 119.863 151.564 119.876L151.456 121.292H150.4L150.508 119.876C149.907 119.837 149.313 119.717 148.744 119.52C148.317 119.361 147.928 119.116 147.6 118.8C147.307 118.519 147.072 118.183 146.908 117.812C146.739 117.404 146.635 116.972 146.6 116.532L149.66 116.18C149.677 116.554 149.773 116.921 149.94 117.256C150.118 117.513 150.365 117.715 150.652 117.84L150.852 115.188C150.134 115.004 149.433 114.76 148.756 114.46C148.329 114.232 147.975 113.89 147.732 113.472C147.446 112.969 147.328 112.387 147.396 111.812C147.423 111.385 147.534 110.968 147.724 110.585C147.913 110.202 148.177 109.86 148.5 109.58C149.308 108.928 150.317 108.576 151.356 108.584L151.412 107.84H152.508L152.452 108.584C153.352 108.582 154.23 108.862 154.964 109.384C155.527 109.863 155.887 110.538 155.972 111.272ZM151.2 110.52C150.937 110.59 150.697 110.728 150.504 110.92C150.366 111.072 150.284 111.267 150.272 111.472C150.251 111.676 150.303 111.88 150.42 112.048C150.586 112.241 150.806 112.38 151.052 112.448L151.2 110.52ZM151.732 117.916C152.094 117.855 152.432 117.692 152.704 117.444C152.906 117.25 153.031 116.99 153.056 116.712C153.076 116.477 153.004 116.243 152.856 116.06C152.599 115.794 152.274 115.603 151.916 115.508L151.732 117.916Z" fill="white"/>
<path d="M102.688 64.668H104.036L103.704 69.012H102.36L102.688 64.668Z" fill="#005BD8"/>
<path d="M105.008 64.668H106.26L107.712 67.068L107.896 64.668H109.16L108.828 69.012H107.564L106.12 66.612L105.936 69.012H104.676L105.008 64.668Z" fill="#005BD8"/>
<path d="M109.624 64.668H111.028L111.768 67.796L112.968 64.668H114.328L112.4 69.012H110.948L109.624 64.668Z" fill="#005BD8"/>
<path d="M114.228 66.844C114.246 66.2201 114.504 65.6272 114.948 65.188C115.415 64.7786 116.023 64.5664 116.644 64.596C116.941 64.5732 117.239 64.613 117.519 64.713C117.8 64.8129 118.056 64.9707 118.272 65.176C118.46 65.3997 118.599 65.661 118.678 65.9424C118.757 66.2238 118.776 66.5189 118.732 66.808C118.715 67.246 118.594 67.6737 118.38 68.056C118.188 68.3778 117.911 68.6407 117.58 68.816C117.199 69.0066 116.777 69.1001 116.352 69.088C115.939 69.1038 115.528 69.023 115.152 68.852C114.837 68.6898 114.583 68.4302 114.428 68.112C114.247 67.7154 114.178 67.277 114.228 66.844ZM115.572 66.844C115.513 67.1704 115.574 67.507 115.744 67.792C115.821 67.8875 115.919 67.9632 116.031 68.0126C116.143 68.062 116.266 68.0838 116.388 68.076C116.516 68.0821 116.644 68.0602 116.763 68.0118C116.881 67.9634 116.988 67.8898 117.076 67.796C117.288 67.5031 117.398 67.1494 117.392 66.788C117.446 66.4761 117.382 66.1552 117.212 65.888C117.134 65.7932 117.034 65.7183 116.922 65.6696C116.809 65.6209 116.686 65.5998 116.564 65.608C116.437 65.6048 116.311 65.6288 116.194 65.6785C116.078 65.7282 115.973 65.8024 115.888 65.896C115.681 66.1699 115.569 66.5046 115.572 66.848V66.844Z" fill="#005BD8"/>
<path d="M119.672 64.668H121.016L120.688 69.012H119.34L119.672 64.668Z" fill="#005BD8"/>
<path d="M124.676 67.236L125.824 67.592C125.735 67.8932 125.587 68.1734 125.388 68.416C125.209 68.6344 124.98 68.806 124.72 68.916C124.41 69.04 124.078 69.0985 123.744 69.088C123.353 69.1024 122.964 69.0314 122.604 68.88C122.291 68.7238 122.038 68.4695 121.884 68.156C121.68 67.7467 121.602 67.2858 121.66 66.832C121.671 66.2093 121.922 65.6149 122.36 65.172C122.818 64.7699 123.415 64.5632 124.024 64.596C124.47 64.5666 124.914 64.6831 125.288 64.928C125.607 65.184 125.826 65.5434 125.908 65.944L124.708 66.208C124.688 66.1068 124.651 66.0095 124.6 65.92C124.537 65.8197 124.449 65.7382 124.344 65.684C124.233 65.6268 124.109 65.598 123.984 65.6C123.842 65.5956 123.7 65.6269 123.573 65.6912C123.446 65.7555 123.337 65.8507 123.256 65.968C123.096 66.2234 123.01 66.5185 123.008 66.82C122.946 67.1575 122.997 67.506 123.152 67.812C123.222 67.9018 123.313 67.9731 123.417 68.0198C123.521 68.0665 123.634 68.0872 123.748 68.08C123.857 68.0871 123.967 68.0716 124.07 68.0344C124.174 67.9972 124.268 67.9392 124.348 67.864C124.506 67.6839 124.618 67.4685 124.676 67.236Z" fill="#005BD8"/>
<path d="M126.696 64.668H130.296L130.228 65.596H127.976L127.924 66.288H130L129.932 67.172H127.844L127.776 68.028H130.096L130.02 69.012H126.356L126.696 64.668Z" fill="#005BD8"/>
<path d="M140.944 74.62H101.932L102.012 73.54H141.028L140.944 74.62Z" fill="#FFD600"/>
<path d="M140.944 74.62H101.932L101.676 77.936H140.692L140.944 74.62Z" fill="#F0F0F0"/>
<path d="M140.44 81.248H101.424L101.172 84.56H140.188L140.44 81.248Z" fill="#F0F0F0"/>
<path d="M139.932 87.872H100.92L100.668 91.188H139.68L139.932 87.872Z" fill="#F0F0F0"/>
<path d="M139.428 94.5H100.412L100.16 97.812H139.176L139.428 94.5Z" fill="#F0F0F0"/>
<path d="M138.84 102.208H99.824L99.908 101.124H138.924L138.84 102.208Z" fill="#FFD600"/>
<path d="M134.376 54.432H142.484L142.116 59.268H134.008L134.376 54.432Z" fill="#FFD600"/>
<path d="M54.8719 85.2L56.3199 85.78C56.8485 85.9925 57.3119 86.3401 57.6639 86.788L58.3279 87.628C58.5423 87.8978 58.6549 88.2343 58.6461 88.5787C58.6374 88.9232 58.5077 89.2535 58.2799 89.512L57.5759 90.312C57.4471 90.4588 57.2904 90.5785 57.1149 90.6643C56.9395 90.7501 56.7488 90.8002 56.5538 90.8117C56.3588 90.8233 56.1635 90.796 55.9792 90.7315C55.7949 90.667 55.6251 90.5666 55.4799 90.436L54.7999 89.836C54.7999 89.836 52.7199 88.376 52.1079 86.444L52.5079 86.044C52.8074 85.7267 53.1777 85.4849 53.5886 85.3382C53.9995 85.1915 54.4392 85.1441 54.8719 85.2Z" fill="#FFB573"/>
<path d="M58.8398 71.168L58.3678 71.48L57.8438 71.84C57.4958 72.088 57.1438 72.344 56.8038 72.604C56.1198 73.136 55.4558 73.684 54.8398 74.268C53.6235 75.3605 52.5797 76.6309 51.7438 78.036C51.6438 78.204 51.5558 78.372 51.4718 78.544L51.4078 78.672C51.424 78.6181 51.4373 78.5633 51.4478 78.508C51.4614 78.442 51.4614 78.374 51.4478 78.308C51.4118 78.192 51.4078 78.492 51.4998 78.788C51.7451 79.5562 52.0653 80.2985 52.4558 81.004C53.2798 82.58 54.3118 84.204 55.2878 85.804L55.3118 85.848C55.5053 86.1664 55.5647 86.5486 55.477 86.9107C55.3893 87.2728 55.1616 87.5854 54.8438 87.78C54.5987 87.927 54.315 87.9969 54.0297 87.9805C53.7443 87.9641 53.4705 87.8622 53.2438 87.688C52.4445 87.0661 51.6818 86.3983 50.9598 85.688C50.2212 84.9696 49.5241 84.2097 48.8718 83.412C48.1453 82.5401 47.5287 81.5823 47.0358 80.56C46.8881 80.241 46.7625 79.9122 46.6598 79.576C46.5279 79.1386 46.4579 78.6849 46.4518 78.228C46.449 77.9185 46.4826 77.6097 46.5518 77.308C46.5922 77.1358 46.6429 76.9661 46.7038 76.8L46.7798 76.596C46.8798 76.32 46.9918 76.052 47.1078 75.796C48.0423 73.7573 49.3347 71.9026 50.9238 70.32C51.6754 69.5517 52.4772 68.8341 53.3238 68.172C53.7478 67.844 54.1758 67.524 54.6198 67.224C54.8438 67.072 55.0678 66.92 55.2998 66.776L55.6558 66.56L56.0558 66.328C56.6839 65.989 57.4177 65.9025 58.1073 66.0864C58.7969 66.2703 59.3903 66.7105 59.7662 67.3173C60.1421 67.924 60.2721 68.6514 60.1297 69.3507C59.9872 70.0501 59.5831 70.6686 58.9998 71.08L58.8398 71.168Z" fill="#FFB573"/>
<path d="M58.8879 64.82C56.5519 64.82 53.9919 65.832 50.7119 69.9C50.7119 72.328 55.8359 75.556 55.8359 75.556C55.8359 75.556 64.2359 64.8 58.8879 64.82Z" fill="#263238"/>
<path d="M41.5319 160.976C41.4899 160.975 41.4482 160.968 41.4079 160.956C40.9239 160.784 40.4679 159.552 40.4399 158.864C40.4379 158.843 40.4426 158.821 40.4534 158.802C40.4641 158.784 40.4804 158.769 40.4999 158.76C40.5184 158.748 40.5399 158.742 40.5619 158.742C40.5838 158.742 40.6053 158.748 40.6239 158.76C40.6759 158.804 41.8799 159.792 41.9359 160.456C41.9437 160.52 41.9382 160.585 41.9196 160.647C41.901 160.709 41.8698 160.767 41.8279 160.816C41.7931 160.863 41.7487 160.901 41.6975 160.929C41.6464 160.956 41.5899 160.972 41.5319 160.976ZM40.6959 159.132C40.8039 159.784 41.1759 160.632 41.4959 160.732C41.5276 160.742 41.5618 160.742 41.593 160.73C41.6242 160.718 41.6506 160.696 41.6679 160.668C41.6903 160.642 41.7068 160.611 41.7165 160.578C41.7261 160.545 41.7287 160.51 41.7239 160.476C41.6799 160.096 41.0879 159.484 40.6959 159.132Z" fill="#263238"/>
<path d="M42.284 159.508C41.6493 159.473 41.0327 159.284 40.488 158.956C40.4704 158.944 40.4566 158.927 40.4481 158.907C40.4396 158.887 40.4368 158.865 40.44 158.844C40.4438 158.822 40.4537 158.802 40.4686 158.786C40.4835 158.769 40.5027 158.758 40.524 158.752C40.588 158.752 42.096 158.352 42.664 158.688C42.721 158.719 42.7708 158.762 42.8101 158.814C42.8494 158.865 42.8773 158.925 42.892 158.988C42.9123 159.061 42.9094 159.139 42.8836 159.211C42.8578 159.283 42.8104 159.344 42.748 159.388C42.6086 159.473 42.4471 159.515 42.284 159.508ZM40.856 158.904C41.444 159.2 42.352 159.4 42.62 159.216C42.66 159.188 42.696 159.148 42.672 159.04C42.6648 159.006 42.6498 158.973 42.6284 158.946C42.6069 158.918 42.5794 158.896 42.548 158.88C42.216 158.676 41.372 158.8 40.856 158.904Z" fill="#263238"/>
<path d="M36.2959 158.596C37.4809 157.328 38.485 155.903 39.2799 154.36C39.2799 154.36 42.9919 155.272 42.2639 156.36C40.9399 158.3 40.2959 162.288 41.9999 164.424C42.9719 165.644 41.4359 165.848 40.3999 165.324C38.7999 164.496 38.8519 164.184 37.9999 162.812C37.2799 161.64 36.9959 161.18 35.9999 160.676C35.1999 160.24 35.5999 159.424 36.2959 158.596Z" fill="#005BD8"/>
<path d="M67.7759 88.932C67.7759 88.932 62.3999 115.172 58.4559 126.4C54.3199 138.168 42.8999 156.332 42.4559 157.112C40.8319 156.676 39.3839 156.108 38.4199 155.168C38.4199 155.168 43.7799 135.468 49.0039 122.688C51.0039 96.008 55.3599 88.952 55.3599 88.952L67.7759 88.932Z" fill="#263238"/>
<path opacity="0.2" d="M59.564 102.972C59.32 108.048 59.164 115.028 59.392 123.524C61.036 118.228 62.824 111.048 64.328 104.604C63.324 103.264 61.764 102.62 59.564 102.972Z" fill="black"/>
<path d="M59.8879 56.756C60.4519 59.04 61.0039 62.756 60.1039 64.756C60.1039 64.756 63.4719 64.908 67.7759 68.356C69.8039 65.38 67.4559 64.796 67.4559 64.796C65.6679 64.396 65.7559 61.996 65.7599 60.296L59.8879 56.756Z" fill="#FFB573"/>
<path d="M59.04 65.776C57.36 65.592 58.52 62.4 59.392 62.712C61.6 63.512 66.552 62.624 68.084 63.468C69.616 64.312 69.228 66.044 69.228 66.044C69.228 66.044 60.848 65.976 59.04 65.776Z" fill="#005BD8"/>
<path opacity="0.7" d="M59.04 65.776C57.36 65.592 58.52 62.4 59.392 62.712C61.6 63.512 66.552 62.624 68.084 63.468C69.616 64.312 69.228 66.044 69.228 66.044C69.228 66.044 60.848 65.976 59.04 65.776Z" fill="white"/>
<path d="M68.84 52.728C68.896 53.032 69.1 53.252 69.3 53.216C69.5 53.18 69.616 52.904 69.564 52.6C69.512 52.296 69.304 52.076 69.104 52.112C68.904 52.148 68.8 52.424 68.84 52.728Z" fill="#263238"/>
<path d="M69.02 52.144L69.716 51.804C69.716 51.804 69.44 52.444 69.02 52.144Z" fill="#263238"/>
<path d="M69.2479 50.288C69.2569 50.2665 69.2615 50.2434 69.2615 50.22C69.2615 50.1967 69.2569 50.1736 69.2479 50.152C69.2348 50.1056 69.204 50.0661 69.1621 50.0422C69.1202 50.0182 69.0705 50.0117 69.0239 50.024C68.7432 50.0926 68.4829 50.2271 68.2644 50.4163C68.046 50.6055 67.8758 50.844 67.7679 51.112C67.7547 51.1582 67.7593 51.2076 67.7808 51.2506C67.8022 51.2935 67.839 51.3269 67.8839 51.344C67.93 51.3592 67.9803 51.3556 68.0238 51.3339C68.0672 51.3121 68.1004 51.2741 68.1159 51.228C68.2028 51.016 68.3394 50.828 68.5141 50.6798C68.6888 50.5315 68.8966 50.4274 69.1199 50.376C69.1462 50.3711 69.1711 50.3607 69.1932 50.3455C69.2152 50.3304 69.2338 50.3108 69.2479 50.288Z" fill="#263238"/>
<path d="M69.2 53.472C69.5491 54.1463 69.9892 54.7695 70.508 55.324C70.3624 55.4532 70.1902 55.5489 70.0036 55.6042C69.8169 55.6595 69.6204 55.6731 69.428 55.644L69.2 53.472Z" fill="#ED893E"/>
<path d="M58.3998 52.572C59.2918 56.284 59.5998 57.872 61.7878 59.468C65.0958 61.868 69.3678 59.972 69.5838 56.076C69.7758 52.564 68.2878 47.088 64.4238 46.232C60.5598 45.376 57.5078 48.86 58.3998 52.572Z" fill="#FFB573"/>
<path d="M65.5999 53.256C67.7839 50.368 69.1999 48.032 68.1319 45.476C67.2319 43.34 64.7399 43.964 64.3919 45.032C57.7679 44.468 55.3879 46.868 56.7559 50.836C57.6279 53.368 54.2439 52.036 55.0679 55.268C55.6959 57.732 53.4679 58.672 54.5999 60.088C56.2319 62.132 59.5999 59.468 63.4439 61C66.5799 62.256 71.3079 60.356 65.5999 53.256Z" fill="#263238"/>
<path d="M65.2358 53.84C65.4163 54.1366 65.6575 54.3915 65.9436 54.588C66.2298 54.7845 66.5543 54.9181 66.8958 54.98C67.7638 55.108 68.0638 54.132 67.6958 53.228C67.3758 52.428 66.5398 51.368 65.7198 51.66C64.8998 51.952 64.7438 53.06 65.2358 53.84Z" fill="#FFB573"/>
<path d="M66.528 163.424C65.83 163.339 65.1723 163.051 64.636 162.596C64.6206 162.581 64.6094 162.563 64.6038 162.542C64.5981 162.522 64.5982 162.5 64.604 162.48C64.6107 162.459 64.6233 162.44 64.6403 162.426C64.6573 162.412 64.678 162.403 64.7 162.4C64.764 162.4 66.3 162.228 66.828 162.652C66.8806 162.691 66.924 162.741 66.9551 162.798C66.9862 162.855 67.0043 162.919 67.008 162.984C67.0247 163.063 67.014 163.146 66.9776 163.219C66.9413 163.291 66.8816 163.35 66.808 163.384C66.7187 163.417 66.6231 163.431 66.528 163.424ZM65.004 162.6C65.548 162.98 66.416 163.312 66.708 163.168C66.752 163.144 66.792 163.108 66.784 163C66.7814 162.965 66.7711 162.931 66.7538 162.901C66.7365 162.87 66.7127 162.844 66.684 162.824C66.4 162.576 65.532 162.568 65.004 162.6Z" fill="#263238"/>
<path d="M64.712 162.628C64.6941 162.627 64.6766 162.622 64.6607 162.614C64.6449 162.606 64.631 162.594 64.62 162.58C64.6083 162.561 64.6021 162.54 64.6021 162.518C64.6021 162.496 64.6083 162.475 64.62 162.456C64.652 162.4 65.42 161.048 66.072 160.884C66.1347 160.865 66.2008 160.86 66.2657 160.869C66.3307 160.878 66.3929 160.901 66.448 160.936C66.5196 160.972 66.5773 161.031 66.612 161.103C66.6467 161.176 66.6566 161.258 66.64 161.336C66.552 161.844 65.408 162.496 64.74 162.636L64.712 162.628ZM66.204 161.092H66.124C65.748 161.188 65.24 161.872 64.956 162.316C65.58 162.1 66.36 161.596 66.416 161.276C66.416 161.228 66.416 161.172 66.324 161.112C66.2863 161.095 66.2451 161.088 66.204 161.092Z" fill="#263238"/>
<path d="M69.4999 164.828C66.2599 164.576 64.0759 162.352 64.2999 159.996C64.4239 158.696 60.2719 158.58 60.2719 158.58C60.9279 162.608 60.1039 163.184 59.8319 164.224C59.5599 165.264 59.6279 166.416 60.4879 166.436C61.5159 166.464 61.9959 166.268 63.2879 166.316C64.7839 166.376 66.3999 166.432 69.0599 166.436C70.1119 166.44 70.9399 164.94 69.4999 164.828Z" fill="#005BD8"/>
<path d="M73.3758 88.932C73.3758 88.932 73.0918 108.808 71.5238 121.868C69.9558 134.928 64.5638 160.544 64.5638 160.544C63.1457 160.879 61.6675 160.865 60.2558 160.504C60.2558 160.504 58.5518 140.504 61.4118 121.156C59.3118 100.888 57.9958 88.932 57.9958 88.932H73.3758Z" fill="#263238"/>
<path d="M74.112 70.548C74.044 72.084 76.468 75.636 73.476 77.692C74.036 78.944 74.508 87.42 73.376 88.932C71.724 90.132 62.784 89.912 55.376 88.932C55.06 85.868 56.748 79.52 54.68 69.624C54.5667 69.0822 54.5686 68.5226 54.6856 67.9816C54.8026 67.4405 55.0321 66.9302 55.3591 66.4836C55.6862 66.037 56.1034 65.6641 56.5839 65.3892C57.0644 65.1144 57.5973 64.9436 58.148 64.888C58.772 64.828 59.432 64.772 60.108 64.74C62.4691 64.5738 64.8389 64.5738 67.2 64.74C67.964 64.812 68.756 64.908 69.512 65.016C70.8291 65.2016 72.0298 65.871 72.8802 66.8937C73.7306 67.9164 74.1697 69.2192 74.112 70.548Z" fill="#005BD8"/>
<g opacity="0.3">
<path d="M54.8639 69.088L54.6999 69.18C54.6852 69.1844 54.6716 69.1921 54.6602 69.2024C54.6488 69.2127 54.6398 69.2255 54.6339 69.2397C54.628 69.2539 54.6254 69.2692 54.6261 69.2846C54.6268 69.2999 54.631 69.3149 54.6382 69.3285C54.6454 69.3421 54.6556 69.3539 54.6679 69.363C54.6803 69.3722 54.6945 69.3785 54.7096 69.3815C54.7247 69.3846 54.7402 69.3842 54.7552 69.3805C54.7701 69.3767 54.784 69.3697 54.7959 69.36L54.9799 69.26C55.7799 69.552 56.6319 70.216 57.1239 70.284C56.3239 69.584 55.7599 69.084 55.1239 69.172C55.3119 69.06 55.4959 68.948 55.6799 68.828C56.4079 69.1 57.1999 69.708 57.6519 69.768C56.9159 69.12 56.3879 68.656 55.8079 68.744L56.2079 68.468L56.4319 68.304C57.0919 68.588 57.7879 69.192 58.2039 69.276C57.5399 68.62 57.0719 68.156 56.5119 68.248C56.6879 68.116 56.8599 67.984 57.0279 67.848C57.6319 68.112 58.2719 68.648 58.6519 68.74C58.0439 68.136 57.6159 67.712 57.0999 67.792L57.5319 67.432L57.6359 67.344C58.1679 67.624 58.6959 68.176 59.0439 68.276C58.5399 67.672 58.1879 67.252 57.6599 67.32C57.7959 67.204 57.9319 67.084 58.0599 66.96C58.5519 67.22 59.0359 67.728 59.3559 67.82C58.8919 67.264 58.5559 66.88 58.0839 66.94L58.5079 66.54C58.9359 66.804 59.3439 67.284 59.6279 67.384C59.2279 66.856 58.9719 66.492 58.5359 66.512C58.6119 66.436 58.6879 66.364 58.7599 66.288L58.8879 66.156C59.2879 66.4 59.6599 66.844 59.9199 66.936C59.5679 66.452 59.3159 66.112 58.9159 66.136C59.0319 66.016 59.1479 65.892 59.2599 65.768C59.6199 65.964 59.9599 66.336 60.1999 66.408C59.8839 66.008 59.6599 65.712 59.2759 65.752L59.3399 65.684L59.5799 65.404C59.855 65.6121 60.1407 65.8057 60.4359 65.984C60.1479 65.612 59.9439 65.352 59.5999 65.38C59.6919 65.268 59.7839 65.148 59.8639 65.028C59.8673 65.025 59.87 65.0213 59.8719 65.0172C59.8738 65.013 59.8747 65.0085 59.8747 65.004C59.8747 64.9995 59.8738 64.995 59.8719 64.9908C59.87 64.9867 59.8673 64.983 59.8639 64.98C59.8576 64.9751 59.8498 64.9725 59.8419 64.9725C59.8339 64.9725 59.8262 64.9751 59.8199 64.98C59.7399 65.092 59.6559 65.2 59.5679 65.304C59.5864 65.1157 59.5336 64.9273 59.4199 64.776H59.2839C59.3692 64.9687 59.4427 65.1664 59.5039 65.368C59.4319 65.452 59.3559 65.532 59.2839 65.612L59.2319 65.668C59.3079 65.376 59.1559 65.124 58.9239 64.804H58.8479C58.9119 65.052 59.0999 65.392 59.1759 65.72L58.8559 66.044C58.9599 65.676 58.7039 65.352 58.3479 64.892C58.3479 65.168 58.6839 65.644 58.8119 66.092L58.6999 66.204L58.4799 66.412C58.5799 66.012 58.3079 65.664 57.9199 65.172C57.9199 65.468 58.2839 65.972 58.4239 66.464L58.0239 66.812C58.1079 66.412 57.8399 66.012 57.4759 65.492C57.4759 65.808 57.7999 66.368 57.9319 66.892L57.6159 67.16C57.7079 66.728 57.4199 66.304 57.0239 65.724C57.0239 66.068 57.3759 66.676 57.5159 67.244L57.4319 67.312C57.2879 67.432 57.1399 67.548 56.9919 67.664C57.1079 67.22 56.8319 66.72 56.4519 66.04C56.4239 66.408 56.7519 67.128 56.8519 67.764C56.6839 67.892 56.5159 68.012 56.3439 68.136C56.5359 67.632 56.2239 67.068 55.7919 66.284C55.7559 66.684 56.1319 67.508 56.2399 68.208L56.0879 68.312L55.6119 68.62C55.8319 68.112 55.5639 67.512 55.1719 66.696C55.1519 66.724 55.1319 66.752 55.1159 66.78C55.1439 67.26 55.4239 68.028 55.4839 68.696C55.3079 68.808 55.1239 68.912 54.9439 69.012C55.1519 68.588 55.0319 68.108 54.7759 67.508C54.7171 67.6778 54.6703 67.8516 54.6359 68.028C54.7391 68.3749 54.8154 68.7293 54.8639 69.088Z" fill="#263238"/>
<path d="M65.084 66.316C64.48 65.916 63.884 65.224 63.484 65.076C64.032 65.828 64.424 66.36 64.992 66.36C64.796 66.46 64.592 66.564 64.416 66.672C63.864 66.316 63.32 65.668 62.956 65.532C63.46 66.224 63.82 66.712 64.34 66.732C64.176 66.824 64.016 66.92 63.856 67.016L63.74 67.088C63.256 66.728 62.824 66.1 62.496 65.944C62.896 66.624 63.18 67.092 63.696 67.108C63.54 67.2 63.388 67.3 63.236 67.4C62.796 67.068 62.396 66.488 62.096 66.348C62.464 66.968 62.72 67.4 63.212 67.416L62.732 67.74C62.352 67.412 62.024 66.872 61.76 66.728C62.056 67.308 62.264 67.716 62.7 67.764L62.44 67.948L62.296 68.056C61.944 67.756 61.64 67.256 61.396 67.124C61.672 67.66 61.864 68.032 62.264 68.08C62.128 68.18 61.996 68.28 61.864 68.384C61.536 68.136 61.26 67.716 61.032 67.608C61.284 68.064 61.456 68.38 61.832 68.408L61.76 68.464L61.476 68.704C61.18 68.472 60.928 68.092 60.72 67.992C60.948 68.392 61.12 68.696 61.452 68.724C61.344 68.82 61.236 68.924 61.132 69.032C61.1286 69.0346 61.126 69.038 61.1241 69.0418C61.1223 69.0456 61.1213 69.0498 61.1213 69.054C61.1213 69.0582 61.1223 69.0624 61.1241 69.0662C61.126 69.0701 61.1286 69.0734 61.132 69.076C61.1379 69.0816 61.1458 69.0848 61.154 69.0848C61.1622 69.0848 61.17 69.0816 61.176 69.076C61.2701 68.9766 61.3703 68.8831 61.476 68.796C61.376 69.068 61.52 69.344 61.712 69.72C61.6791 69.3888 61.6243 69.06 61.548 68.736C61.632 68.664 61.716 68.6 61.804 68.532L61.864 68.484C61.728 68.792 61.884 69.1 62.104 69.532C62.0649 69.1649 62.0048 68.8003 61.924 68.44C62.048 68.344 62.168 68.256 62.296 68.168C62.136 68.512 62.336 68.876 62.616 69.368C62.644 69.096 62.4 68.568 62.348 68.112L62.476 68.02L62.724 67.852C62.564 68.224 62.776 68.616 63.08 69.164C63.108 68.868 62.848 68.304 62.788 67.808L63.224 67.528C63.076 67.908 63.276 68.328 63.552 68.916C63.6 68.604 63.372 68 63.324 67.464L63.68 67.248C63.52 67.648 63.736 68.124 64.04 68.76C64.092 68.42 63.84 67.76 63.792 67.18L63.884 67.128L64.376 66.848C64.192 67.268 64.376 67.804 64.648 68.54C64.736 68.18 64.528 67.416 64.52 66.772C64.708 66.672 64.892 66.576 65.084 66.484C64.812 66.952 65.028 67.556 65.336 68.4C65.432 68 65.192 67.14 65.196 66.432L65.36 66.352L65.884 66.12C65.572 66.608 65.768 67.28 66.048 68.212C66.176 67.78 65.968 66.836 66.02 66.064C66.212 65.984 66.42 65.912 66.604 65.84C66.228 66.372 66.444 67.112 66.752 68.144C66.896 67.676 66.664 66.636 66.724 65.8L66.904 65.736C66.9171 65.732 66.9293 65.7253 66.9398 65.7164C66.9503 65.7074 66.9588 65.6964 66.9648 65.684C66.9708 65.6716 66.9742 65.6581 66.9747 65.6443C66.9753 65.6306 66.973 65.6168 66.968 65.604C66.9581 65.5787 66.939 65.558 66.9145 65.5462C66.89 65.5343 66.862 65.5321 66.836 65.54L66.64 65.612C66.1768 65.317 65.7332 64.9923 65.312 64.64H64.992C65.512 65.26 65.94 65.676 66.472 65.684C66.268 65.76 66.072 65.848 65.868 65.936C65.192 65.536 64.508 64.828 64.072 64.692C64.696 65.452 65.144 65.992 65.732 65.996L65.284 66.204L65.084 66.316Z" fill="#263238"/>
<path d="M60.088 73.796C59.648 73.316 59.34 72.996 58.908 73.048L59.108 72.804L59.22 72.66C59.62 72.856 60.06 73.256 60.332 73.316C59.932 72.876 59.64 72.564 59.24 72.628C59.344 72.496 59.444 72.364 59.544 72.228C59.924 72.38 60.304 72.712 60.552 72.756C60.188 72.384 59.936 72.124 59.556 72.208C59.5769 72.1844 59.5956 72.1589 59.612 72.132C59.684 72.032 59.752 71.932 59.82 71.828C60.1179 72.0054 60.425 72.167 60.74 72.312C60.408 71.972 60.18 71.736 59.84 71.804C59.92 71.68 59.996 71.552 60.064 71.404C60.0677 71.396 60.0681 71.3869 60.0651 71.3787C60.0621 71.3704 60.0559 71.3637 60.048 71.36C60.04 71.3563 60.0309 71.3559 60.0227 71.3589C60.0144 71.3619 60.0077 71.368 60.004 71.376C59.9396 71.4966 59.8675 71.6128 59.788 71.724C59.812 71.436 59.6 71.208 59.312 70.896C59.4332 71.2077 59.5748 71.511 59.736 71.804L59.544 72.068L59.496 72.128C59.548 71.796 59.312 71.54 58.988 71.184C59.1219 71.5292 59.2768 71.8658 59.452 72.192L59.168 72.552C59.228 72.172 58.94 71.88 58.532 71.46C58.58 71.732 58.932 72.172 59.128 72.6L59.028 72.724L58.832 72.952C58.888 72.552 58.58 72.232 58.14 71.784C58.192 72.076 58.592 72.552 58.784 73.012L58.44 73.412C58.48 73.012 58.172 72.648 57.748 72.16C57.788 72.476 58.172 72.996 58.36 73.5L58.076 73.804C58.12 73.364 57.784 72.976 57.324 72.444C57.364 72.784 57.78 73.352 57.984 73.896L57.908 73.976C57.78 74.112 57.644 74.244 57.508 74.376C57.576 73.924 57.248 73.46 56.796 72.824C56.796 73.192 57.196 73.872 57.392 74.492C57.24 74.636 57.084 74.78 56.928 74.916C57.064 74.396 56.692 73.872 56.172 73.14C56.172 73.54 56.648 74.316 56.832 75L56.692 75.12C56.548 75.244 56.4 75.364 56.252 75.484C56.424 74.928 56.052 74.336 55.536 73.512C55.536 73.96 55.98 74.816 56.136 75.572C55.9733 75.7 55.8053 75.824 55.632 75.944C55.685 75.7562 55.6989 75.5596 55.6727 75.3662C55.6466 75.1729 55.581 74.9869 55.48 74.82C55.528 75.296 55.568 75.76 55.6 76.216L55.656 76.176C56.476 76.38 57.404 76.94 57.9 76.952C57.036 76.344 56.412 75.912 55.8 76.072C55.976 75.94 56.148 75.804 56.316 75.672C57.072 75.86 57.916 76.376 58.38 76.388C57.58 75.824 57 75.42 56.432 75.588C56.56 75.48 56.684 75.376 56.808 75.264L57.012 75.076C57.7 75.288 58.46 75.812 58.88 75.844C58.152 75.268 57.632 74.86 57.084 75.012C57.244 74.864 57.4 74.712 57.556 74.556C58.184 74.752 58.884 75.232 59.268 75.264C58.596 74.732 58.12 74.356 57.616 74.496C57.748 74.36 57.88 74.228 58.016 74.096L58.108 73.996C58.668 74.216 59.256 74.704 59.612 74.768C59.044 74.224 58.648 73.844 58.132 73.968C58.252 73.836 58.376 73.7 58.492 73.568C59.008 73.772 59.548 74.22 59.876 74.276C59.356 73.776 58.992 73.432 58.516 73.544C58.644 73.4 58.768 73.252 58.888 73.104C59.336 73.296 59.796 73.728 60.088 73.796Z" fill="#263238"/>
<path d="M67.0519 73.504C66.7639 73.632 66.3759 74.148 65.9479 74.476L65.5759 74.292C66.0119 74.208 66.2839 73.776 66.6599 73.18C66.3439 73.316 65.9239 73.88 65.4599 74.236L65.3639 74.184C65.1959 74.1 65.0319 74.008 64.8679 73.92C65.3199 73.852 65.6679 73.4 66.1439 72.78C65.7919 72.9 65.2639 73.488 64.7239 73.84C64.5399 73.736 64.3599 73.632 64.1799 73.52C64.7159 73.5 65.1119 72.988 65.6599 72.276C65.2599 72.412 64.6719 73.076 64.0599 73.452L63.9039 73.356L63.4319 73.04C64.0079 73.04 64.4679 72.516 65.1039 71.78C64.6719 71.9 63.9879 72.58 63.3119 72.956C63.1385 72.836 62.9705 72.712 62.8079 72.584C63.4559 72.616 63.9639 72.036 64.6719 71.22C64.1959 71.348 63.4439 72.104 62.7039 72.504L62.5559 72.384C62.5358 72.3652 62.5094 72.3547 62.4819 72.3547C62.4544 72.3547 62.4279 72.3652 62.4079 72.384C62.3893 72.4034 62.3789 72.4292 62.3789 72.456C62.3789 72.4829 62.3893 72.5087 62.4079 72.528L62.5719 72.656C62.6199 73.5 62.3519 74.552 62.4839 75.032C62.8119 74.024 63.0479 73.3 62.7159 72.764C62.8919 72.892 63.0719 73.016 63.2519 73.136C63.2919 73.936 63.0479 74.88 63.1719 75.32C63.4759 74.388 63.6919 73.72 63.3759 73.22L63.7759 73.484L64.0159 73.628C64.0159 74.344 63.7359 75.228 63.8239 75.628C64.1639 74.764 64.4039 74.148 64.0999 73.672C64.2879 73.78 64.4999 73.884 64.6719 73.988C64.6719 74.648 64.4159 75.452 64.4959 75.832C64.8079 75.032 65.0279 74.468 64.7479 74.028L65.2519 74.284L65.3719 74.344C65.3279 74.94 65.0319 75.648 65.0759 76.004C65.4319 75.304 65.6759 74.804 65.4039 74.356L65.8959 74.584C65.8519 75.136 65.5799 75.784 65.6239 76.116C65.9479 75.468 66.1719 75.02 65.9239 74.6C66.0999 74.68 66.2759 74.756 66.4559 74.828C66.3839 75.324 66.1039 75.892 66.1239 76.192C66.4559 75.628 66.6839 75.236 66.4919 74.844L66.7879 74.964L66.9559 75.028C66.8919 75.488 66.6359 76.008 66.6519 76.284C66.9559 75.768 67.1679 75.404 66.9919 75.04C67.1479 75.1 67.3039 75.16 67.4639 75.212C67.4319 75.612 67.2239 76.08 67.2559 76.332C67.5039 75.876 67.6559 75.556 67.4879 75.22L67.5759 75.252C67.6919 75.288 67.8079 75.328 67.9279 75.36C67.8462 75.6965 67.7822 76.0369 67.7359 76.38C67.9599 75.98 68.1359 75.676 67.9559 75.368C68.0973 75.4126 68.2416 75.4473 68.3879 75.472C68.3958 75.4733 68.4039 75.4715 68.4105 75.467C68.4172 75.4626 68.422 75.4558 68.4239 75.448C68.4253 75.4396 68.4236 75.4309 68.4192 75.4236C68.4148 75.4163 68.408 75.4108 68.3999 75.408C68.2639 75.38 68.1319 75.344 67.9999 75.304C68.2799 75.24 68.4359 74.976 68.6479 74.608C68.4479 74.696 68.1959 75.052 67.9079 75.276L67.5999 75.172L67.5279 75.144C67.8599 75.096 68.0359 74.796 68.2799 74.38C68.0519 74.48 67.7759 74.876 67.4519 75.116C67.3119 75.064 67.1679 75.012 67.0279 74.952C67.4039 74.9 67.6039 74.552 67.8799 74.028C67.6359 74.152 67.3239 74.636 66.9679 74.928L66.8199 74.868L66.5439 74.748C66.9439 74.688 67.1599 74.296 67.4599 73.748C67.1959 73.88 66.8599 74.4 66.4759 74.72C66.3159 74.652 66.1599 74.58 66.0039 74.504C66.4559 74.448 66.7079 74.052 67.0519 73.504Z" fill="#263238"/>
<path d="M64.7438 78.836C65.051 78.9935 65.366 79.135 65.6878 79.26C65.3398 78.944 65.0918 78.724 64.7598 78.808C64.8318 78.68 64.8998 78.552 64.9598 78.408C64.9616 78.4041 64.9627 78.3998 64.9629 78.3955C64.9631 78.3911 64.9624 78.3868 64.9609 78.3827C64.9594 78.3786 64.9571 78.3749 64.9542 78.3717C64.9513 78.3685 64.9477 78.3659 64.9438 78.364C64.9399 78.3622 64.9356 78.3611 64.9312 78.361C64.9269 78.3608 64.9226 78.3614 64.9185 78.3629C64.9144 78.3644 64.9106 78.3667 64.9074 78.3696C64.9042 78.3726 64.9016 78.3761 64.8998 78.38C64.8398 78.504 64.7758 78.624 64.7078 78.744C64.7078 78.456 64.4838 78.24 64.1798 77.944C64.3191 78.2461 64.4781 78.5388 64.6558 78.82L64.4838 79.096L64.4398 79.16C64.4678 78.824 64.2198 78.584 63.8718 78.252C64.0279 78.5857 64.2028 78.9102 64.3958 79.224L64.1398 79.604C64.1758 79.224 63.8678 78.944 63.4358 78.556C63.4998 78.824 63.8998 79.24 64.0998 79.656L64.0078 79.784C63.9518 79.864 63.8878 79.944 63.8278 80.024C63.8598 79.624 63.5318 79.32 63.0638 78.904C63.1358 79.192 63.5638 79.64 63.7838 80.104C63.6798 80.244 63.5718 80.38 63.4638 80.504C63.4638 80.104 63.1518 79.76 62.6958 79.304C62.7558 79.612 63.1718 80.104 63.3878 80.6C63.3025 80.7094 63.2145 80.8174 63.1238 80.924C63.1238 80.48 62.7838 80.124 62.2918 79.612C62.3518 79.948 62.8038 80.488 63.0438 81.02L62.9718 81.104C62.8478 81.248 62.7238 81.388 62.5958 81.524C62.6358 81.072 62.2758 80.624 61.7958 80.02C61.8278 80.388 62.2798 81.04 62.4958 81.648C62.3518 81.8 62.2078 81.952 62.0598 82.1C62.1598 81.576 61.7558 81.072 61.1918 80.376C61.2318 80.776 61.7438 81.52 61.9678 82.192L61.8398 82.32L61.4198 82.72C61.5558 82.156 61.1478 81.588 60.5838 80.8C60.5838 81.248 61.1078 82.076 61.3118 82.8C61.1558 82.94 60.9958 83.076 60.8318 83.2C61.0118 82.576 60.5678 81.948 59.9358 81.072C59.9358 81.564 60.5118 82.468 60.7358 83.28L60.5838 83.4C60.573 83.4084 60.564 83.4189 60.5573 83.4308C60.5505 83.4426 60.5462 83.4557 60.5446 83.4693C60.5429 83.4829 60.5439 83.4966 60.5475 83.5098C60.5512 83.5229 60.5574 83.5353 60.5658 83.546C60.5742 83.5568 60.5846 83.5658 60.5965 83.5725C60.6084 83.5793 60.6215 83.5836 60.6351 83.5853C60.6486 83.5869 60.6624 83.5859 60.6755 83.5823C60.6887 83.5786 60.701 83.5724 60.7118 83.564L60.8718 83.432C61.7038 83.58 62.6678 84.084 63.1638 84.064C62.2598 83.512 61.6118 83.116 61.0118 83.316C61.1758 83.176 61.3398 83.028 61.4998 82.88C62.2638 83.02 63.1478 83.48 63.6038 83.464C62.7678 82.952 62.1638 82.588 61.6038 82.78C61.7238 82.664 61.8438 82.552 61.9598 82.432L62.1558 82.232C62.8518 82.4 63.6438 82.872 64.0638 82.88C63.2998 82.352 62.7598 81.976 62.2198 82.164C62.3718 82.004 62.5158 81.844 62.6598 81.68C63.3038 81.832 64.0278 82.268 64.4158 82.276C63.7118 81.788 63.2158 81.444 62.7198 81.612C62.8438 81.472 62.9638 81.328 63.0838 81.184L63.1678 81.076C63.7438 81.26 64.3678 81.712 64.7198 81.752C64.1158 81.244 63.6998 80.892 63.1918 81.052L63.5278 80.628C64.0558 80.796 64.6198 81.208 64.9518 81.244C64.3998 80.78 64.0158 80.444 63.5478 80.6C63.6638 80.448 63.7798 80.292 63.8918 80.136C64.3598 80.32 64.8478 80.724 65.1438 80.772C64.6718 80.324 64.3438 80.008 63.9158 80.104C63.9798 80.02 64.0398 79.932 64.0998 79.848C64.1598 79.764 64.1678 79.744 64.2038 79.696C64.6318 79.864 65.0798 80.236 65.3558 80.28C64.9198 79.88 64.6158 79.576 64.2238 79.664C64.3198 79.5254 64.4118 79.3854 64.4998 79.244C64.8998 79.372 65.2998 79.68 65.5398 79.708C65.1398 79.36 64.8838 79.116 64.5118 79.224L64.5638 79.144L64.7438 78.836Z" fill="#263238"/>
<path d="M67.1679 83.3C67.2532 83.1907 67.3412 83.0867 67.4319 82.988C67.3719 83.268 67.5439 83.524 67.7839 83.876C67.7078 83.5508 67.613 83.2302 67.4999 82.916L67.7279 82.684L67.7799 82.628C67.6839 82.952 67.8759 83.24 68.1479 83.636C68.0641 83.277 67.96 82.9231 67.8359 82.576L68.1679 82.26C68.0559 82.624 68.2959 82.96 68.6399 83.432C68.6399 83.156 68.3279 82.664 68.2159 82.232L68.3359 82.128L68.5599 81.928C68.4439 82.328 68.7039 82.68 69.0719 83.188C69.0719 82.888 68.7399 82.36 68.6159 81.88C68.7479 81.764 68.8799 81.656 69.0159 81.544C68.9159 81.944 69.1679 82.344 69.5119 82.884C69.5119 82.568 69.2199 81.992 69.1119 81.468L69.4399 81.212C69.3279 81.64 69.6039 82.072 69.9799 82.668C69.9799 82.324 69.6599 81.7 69.5399 81.132L69.6279 81.064L70.0799 80.732C69.9479 81.168 70.2039 81.676 70.5599 82.372C70.5999 82.004 70.2999 81.272 70.2159 80.636C70.3879 80.516 70.5599 80.396 70.7359 80.28C70.5239 80.776 70.8159 81.352 71.2239 82.152C71.2719 81.752 70.9239 80.916 70.8239 80.212L70.9759 80.116C71.1399 80.016 71.3039 79.916 71.4679 79.824C71.2159 80.344 71.4959 80.984 71.8679 81.876C71.9439 81.432 71.6239 80.52 71.5799 79.752C71.7599 79.648 71.9439 79.548 72.1319 79.456C71.8239 80.028 72.1319 80.736 72.5639 81.724C72.6479 81.24 72.2919 80.236 72.2479 79.4L72.4159 79.316C72.4282 79.3104 72.4392 79.3024 72.4483 79.2925C72.4574 79.2826 72.4644 79.2709 72.4689 79.2582C72.4733 79.2455 72.4752 79.232 72.4744 79.2186C72.4735 79.2051 72.4699 79.192 72.4639 79.18C72.4579 79.1676 72.4495 79.1565 72.4392 79.1473C72.429 79.1382 72.4169 79.1312 72.4039 79.1267C72.3909 79.1223 72.3771 79.1204 72.3634 79.1213C72.3496 79.1222 72.3362 79.1259 72.3239 79.132L72.1399 79.228C71.3599 78.908 70.5199 78.212 70.0319 78.128C70.7999 78.856 71.3519 79.38 71.9799 79.328C71.7879 79.428 71.5999 79.54 71.4119 79.648C70.6919 79.352 69.9239 78.716 69.4759 78.64C70.1879 79.316 70.6999 79.796 71.2839 79.728L70.8639 79.992L70.6319 80.148C69.9839 79.836 69.3079 79.208 68.8999 79.112C69.5359 79.792 69.9879 80.272 70.5519 80.2C70.3719 80.324 70.1959 80.452 70.0199 80.6C69.4239 80.316 68.8199 79.74 68.4199 79.652C69.0079 80.276 69.4239 80.716 69.9399 80.656C69.7919 80.768 69.6399 80.88 69.4959 80.996L69.3879 81.084C68.8679 80.784 68.3599 80.212 68.0159 80.1C68.4959 80.724 68.8159 81.152 69.3639 81.104L68.9439 81.448C68.4639 81.176 67.9959 80.648 67.6799 80.544C68.1239 81.116 68.4319 81.512 68.9199 81.472C68.7719 81.596 68.6279 81.72 68.4839 81.872C68.0839 81.592 67.6839 81.096 67.3959 80.988C67.7599 81.528 68.0199 81.904 68.4559 81.9L68.2199 82.112L68.0879 82.24C67.6879 81.98 67.3439 81.524 67.0839 81.44C67.4239 81.936 67.6599 82.284 68.0639 82.28C67.9399 82.396 67.8199 82.512 67.7039 82.632C67.3519 82.428 67.0239 82.044 66.7839 81.964C67.0879 82.364 67.2999 82.676 67.6879 82.652L67.6239 82.716C67.5399 82.804 67.4519 82.896 67.3719 82.988C67.0479 82.796 66.7519 82.448 66.5359 82.376C66.8119 82.756 67.0039 83.024 67.3359 83.012C67.2361 83.1199 67.1426 83.2334 67.0559 83.352C67.0525 83.355 67.0498 83.3587 67.0479 83.3628C67.046 83.367 67.0451 83.3714 67.0451 83.376C67.0451 83.3805 67.046 83.385 67.0479 83.3892C67.0498 83.3933 67.0525 83.397 67.0559 83.4C67.0585 83.4033 67.0619 83.406 67.0657 83.4079C67.0695 83.4097 67.0737 83.4107 67.0779 83.4107C67.0821 83.4107 67.0863 83.4097 67.0901 83.4079C67.0939 83.406 67.0973 83.4033 67.0999 83.4L67.1679 83.3Z" fill="#263238"/>
<path d="M62.48 89C62.64 88.8507 62.796 88.6987 62.948 88.544C63.58 88.74 64.276 89.22 64.664 89.252C63.992 88.72 63.516 88.344 63.012 88.48C63.144 88.348 63.276 88.212 63.412 88.08L63.504 87.98C64.064 88.2 64.648 88.688 65.008 88.752C64.44 88.204 64.044 87.828 63.524 87.952C63.648 87.82 63.768 87.684 63.888 87.552C64.404 87.756 64.944 88.204 65.272 88.26C64.748 87.76 64.384 87.412 63.912 87.528L64.284 87.088C64.74 87.3 65.2 87.732 65.484 87.8C65.044 87.324 64.732 87 64.284 87.056L64.484 86.812L64.596 86.668C65.016 86.864 65.44 87.26 65.712 87.324C65.312 86.88 65.02 86.572 64.62 86.636C64.724 86.504 64.824 86.372 64.92 86.236C65.32 86.388 65.68 86.72 65.928 86.764C65.568 86.392 65.316 86.132 64.936 86.216L64.992 86.14C65.06 86.04 65.132 85.94 65.2 85.836C65.497 86.0114 65.8027 86.1716 66.116 86.316C65.788 85.98 65.556 85.744 65.216 85.808C65.2977 85.6856 65.3725 85.5588 65.44 85.428C65.4421 85.4243 65.4435 85.4203 65.444 85.4161C65.4445 85.4119 65.4442 85.4076 65.4431 85.4035C65.442 85.3994 65.4401 85.3956 65.4375 85.3923C65.4349 85.3889 65.4317 85.3861 65.428 85.384C65.4243 85.3819 65.4203 85.3806 65.4161 85.38C65.4119 85.3795 65.4076 85.3798 65.4035 85.3809C65.3994 85.382 65.3956 85.3839 65.3922 85.3865C65.3889 85.3891 65.3861 85.3923 65.384 85.396C65.3173 85.516 65.2453 85.632 65.168 85.744C65.168 85.456 64.98 85.228 64.692 84.916C64.8076 85.2262 64.9411 85.5294 65.092 85.824L64.904 86.088L64.856 86.148C64.908 85.816 64.672 85.56 64.344 85.204C64.4806 85.5467 64.6355 85.8819 64.808 86.208C64.716 86.332 64.624 86.452 64.528 86.568C64.588 86.192 64.3 85.896 63.892 85.48C63.94 85.752 64.312 86.192 64.488 86.62C64.452 86.66 64.42 86.704 64.388 86.744L64.192 86.972C64.248 86.572 63.94 86.252 63.5 85.804C63.552 86.096 63.952 86.568 64.144 87.032L63.8 87.432C63.84 87.032 63.532 86.668 63.108 86.18C63.144 86.492 63.508 87.016 63.716 87.52L63.432 87.824C63.476 87.38 63.144 86.996 62.684 86.464C62.724 86.804 63.14 87.372 63.344 87.916L63.268 87.996L62.868 88.396C62.936 87.944 62.604 87.476 62.152 86.844C62.152 87.212 62.572 87.892 62.748 88.512L62.288 88.936C62.42 88.416 62.052 87.892 61.528 87.16C61.528 87.56 62.008 88.336 62.192 89.02L62.052 89.14C61.908 89.264 61.76 89.384 61.612 89.5C61.784 88.948 61.412 88.356 60.896 87.532C60.896 87.976 61.328 88.816 61.488 89.564H61.796C61.92 89.46 62.044 89.356 62.164 89.248C62.284 89.14 62.304 89.124 62.372 89.06C62.8449 89.2382 63.307 89.4439 63.756 89.676H64.06C63.46 89.2 62.98 88.86 62.48 89Z" fill="#263238"/>
<path d="M60.2678 87.768C60.2678 88.168 60.5678 88.824 60.7798 89.492L61.0838 89.516C61.0478 89.02 60.7078 88.472 60.2678 87.768Z" fill="#263238"/>
<path d="M61.856 89.572L62.46 89.608C62.2661 89.5389 62.0566 89.5264 61.856 89.572Z" fill="#263238"/>
<path d="M73.4958 88.732C73.5081 88.7088 73.5188 88.6847 73.5278 88.66L73.3838 88.608L73.3118 88.584C73.4245 88.5651 73.5298 88.5153 73.6158 88.44C73.6518 88.336 73.6878 88.224 73.7198 88.1C73.5703 88.2641 73.4085 88.4165 73.2358 88.556L72.7998 88.4C73.1758 88.344 73.3758 88 73.6518 87.472C73.4078 87.596 73.0958 88.08 72.7398 88.376L72.5918 88.316L72.3158 88.196C72.7158 88.132 72.9318 87.744 73.2318 87.192C72.9678 87.328 72.6318 87.848 72.2478 88.168L71.7758 87.952C72.1758 87.868 72.4238 87.472 72.7678 86.924C72.4798 87.052 72.0918 87.572 71.6638 87.9L71.2918 87.716C71.7278 87.628 71.9998 87.196 72.3758 86.6C72.0598 86.74 71.6398 87.304 71.1758 87.656L71.0798 87.608L70.5838 87.34C71.0358 87.272 71.3838 86.82 71.8598 86.204C71.5078 86.324 70.9798 86.912 70.4398 87.26C70.2558 87.16 70.0758 87.052 69.8958 86.944C70.4318 86.92 70.8278 86.412 71.3758 85.7C70.9758 85.832 70.3878 86.5 69.7758 86.876L69.6198 86.78C69.4598 86.676 69.3038 86.572 69.1478 86.46C69.7238 86.46 70.1838 85.936 70.8198 85.204C70.3878 85.324 69.7038 86.004 69.0278 86.38L68.5198 86.004C69.1718 86.036 69.6798 85.456 70.3878 84.64C69.9118 84.772 69.1598 85.524 68.4198 85.924L68.2718 85.808C68.261 85.7996 68.2487 85.7934 68.2355 85.7898C68.2224 85.7861 68.2086 85.7851 68.1951 85.7868C68.1677 85.7901 68.1428 85.8043 68.1258 85.826C68.1088 85.8478 68.1012 85.8754 68.1045 85.9027C68.1079 85.9301 68.122 85.955 68.1438 85.972L68.3078 86.096C68.3558 86.94 68.0878 87.996 68.2198 88.472C68.5478 87.468 68.7838 86.744 68.4518 86.204C68.6278 86.336 68.8078 86.46 68.9878 86.58C69.0278 87.356 68.7838 88.324 68.9078 88.764C69.2118 87.828 69.4278 87.164 69.1118 86.664C69.2518 86.752 69.3878 86.844 69.5118 86.928L69.7518 87.072C69.7518 87.788 69.4718 88.672 69.5598 89.072C69.8998 88.204 70.1398 87.592 69.8358 87.112C70.0238 87.224 70.2358 87.328 70.4078 87.428C70.4078 88.088 70.1518 88.896 70.2318 89.272C70.5438 88.472 70.7638 87.912 70.4838 87.472L70.9878 87.724L71.1078 87.784C71.0638 88.384 70.7678 89.088 70.8118 89.448C71.1678 88.744 71.4118 88.248 71.1398 87.8L71.6318 88.028C71.5918 88.564 71.3358 89.184 71.3558 89.524H71.3758C71.6918 88.9 71.9038 88.46 71.6598 88.044L72.1918 88.276C72.1318 88.676 71.9398 89.124 71.8798 89.44L71.9878 89.42C72.2438 88.972 72.3878 88.62 72.2278 88.292L72.5198 88.408L72.6918 88.476C72.6365 88.7582 72.5617 89.0362 72.4678 89.308L72.6518 89.252C72.7252 89.1403 72.7705 89.0124 72.7837 88.8794C72.7969 88.7463 72.7777 88.612 72.7278 88.488L73.1998 88.66C73.1858 88.7953 73.1604 88.9291 73.1238 89.06C73.1848 89.0295 73.2436 88.9947 73.2998 88.956C73.3016 88.8536 73.2754 88.7526 73.2238 88.664L73.3118 88.692L73.4958 88.732Z" fill="#263238"/>
<path d="M58.1039 80.4C58.1298 80.3917 58.1517 80.3739 58.165 80.3501C58.1784 80.3264 58.1823 80.2985 58.1759 80.272C58.1685 80.2455 58.1508 80.223 58.1268 80.2095C58.1028 80.196 58.0744 80.1926 58.0479 80.2L57.8479 80.26C57.1399 79.8 56.4479 78.96 55.9839 78.784C56.5999 79.644 57.0439 80.26 57.6759 80.312C57.4679 80.376 57.2759 80.448 57.0559 80.524C56.5759 80.208 56.1039 79.724 55.7159 79.404C55.7159 79.496 55.7159 79.584 55.7159 79.676C56.1159 80.196 56.4639 80.544 56.9159 80.576C56.7599 80.632 56.6079 80.692 56.4559 80.756L56.1959 80.864C56.0251 80.7353 55.8634 80.5949 55.7119 80.444C55.7119 80.556 55.7119 80.664 55.7119 80.776C55.8339 80.8483 55.9706 80.892 56.1119 80.904L55.7119 81.092C55.7119 81.148 55.7119 81.204 55.7119 81.26L56.2519 81.028C55.9519 81.476 56.1319 82.096 56.3799 82.956C56.5039 82.556 56.3159 81.688 56.3799 80.98L56.5479 80.912L57.0839 80.716C56.7399 81.184 56.8919 81.868 57.1119 82.812C57.2679 82.392 57.1119 81.436 57.2199 80.672C57.4199 80.604 57.6199 80.54 57.8199 80.484C57.4199 80.992 57.5799 81.74 57.8199 82.796C57.9919 82.336 57.8199 81.284 57.9439 80.452L58.1039 80.4Z" fill="#263238"/>
<path d="M55.6318 82.892C55.6318 82.94 55.6558 82.984 55.6718 83.036C55.723 82.6886 55.723 82.3355 55.6718 81.988C55.6598 82.296 55.6478 82.6 55.6318 82.892Z" fill="#263238"/>
<path d="M57.0479 88.744L56.8999 88.508C57.2239 87.868 57.8719 87.208 57.9759 86.8C57.2799 87.42 56.7759 87.86 56.8479 88.424C56.7279 88.24 56.6039 88.064 56.4799 87.884C56.7799 87.296 57.3719 86.684 57.4719 86.32C56.8319 86.888 56.3799 87.292 56.4279 87.812L56.0959 87.356L56.0159 87.248C56.3239 86.736 56.9079 86.24 57.0319 85.9C56.3959 86.364 55.9559 86.7 55.9959 87.224L55.6599 86.796C55.9479 86.324 56.4839 85.868 56.5959 85.556C56.0119 85.984 55.6079 86.28 55.6399 86.756L55.3919 86.46V86.628L55.5359 86.804C55.4859 86.7921 55.4351 86.7841 55.3839 86.78C55.3839 86.84 55.3839 86.896 55.3839 86.956L55.6159 86.9L55.8679 87.236C55.706 87.1882 55.5338 87.1882 55.3719 87.236V87.484C55.5623 87.4172 55.7575 87.365 55.9559 87.328L56.0199 87.412L56.3439 87.876C56.0132 87.804 55.6676 87.8507 55.3679 88.008C55.3679 88.08 55.3679 88.156 55.3679 88.228C55.7211 88.1368 56.079 88.0647 56.4399 88.012C56.5559 88.188 56.6679 88.364 56.7759 88.544C56.3959 88.368 55.9759 88.5 55.3959 88.748C55.3959 88.8 55.3959 88.86 55.3959 88.908H55.4839C55.928 88.7942 56.378 88.7047 56.8319 88.64L56.9279 88.796L57.0999 89.104L57.3239 89.132C57.2199 89.024 57.1359 88.884 57.0479 88.744Z" fill="#263238"/>
<path d="M55.4839 85.112V85.3C55.5965 85.1948 55.6911 85.0719 55.7639 84.936L55.4839 85.112Z" fill="#263238"/>
<path d="M57.8359 89.224L58.1919 89.264C58.4921 88.8647 58.7358 88.4259 58.9159 87.96C58.4999 88.33 58.1365 88.7553 57.8359 89.224Z" fill="#263238"/>
<path d="M57.4319 89.2C57.7639 88.524 58.3519 87.828 58.4359 87.404C57.7399 88.1 57.2359 88.604 57.2999 89.184L57.4319 89.2Z" fill="#263238"/>
<path d="M55.4319 85.828C55.4319 85.936 55.4319 86.04 55.4119 86.144C55.6956 85.8746 55.9527 85.5786 56.1799 85.26C55.9065 85.4154 55.6549 85.6064 55.4319 85.828Z" fill="#263238"/>
</g>
<path d="M83.2 76.048L84.968 74.172L87.42 77.624C87.42 77.624 85.352 79.088 83.372 79.032L83.144 78.524C82.961 78.1351 82.8709 77.7091 82.8806 77.2794C82.8903 76.8497 82.9997 76.4282 83.2 76.048Z" fill="#FFB573"/>
<path d="M87.8199 74.356L88.5119 75.656C88.6637 75.9416 88.6963 76.2756 88.6026 76.5851C88.5089 76.8947 88.2966 77.1546 88.0119 77.308L87.4359 77.624L84.9839 74.172L86.3879 73.772C86.6573 73.6897 86.9469 73.7028 87.2078 73.8092C87.4687 73.9156 87.6849 74.1087 87.8199 74.356Z" fill="#FFB573"/>
<path d="M73.8719 69.316L74.024 70.08L74.1919 70.88C74.3119 71.42 74.428 71.964 74.564 72.48C74.824 73.552 75.136 74.604 75.468 75.62C75.7991 76.5956 76.2002 77.5461 76.668 78.464C77.042 79.219 77.5364 79.908 78.132 80.504L77.284 80.104C77.036 80.072 76.988 80.148 77.12 80.144C77.3301 80.1214 77.5346 80.0619 77.724 79.968C78.3233 79.6929 78.8941 79.3593 79.428 78.972C80.024 78.572 80.628 78.1 81.224 77.616C81.82 77.132 82.424 76.616 83.008 76.14L83.0719 76.092C83.3224 75.8875 83.6355 75.7754 83.9588 75.7746C84.2821 75.7737 84.5959 75.8841 84.8474 76.0873C85.0988 76.2905 85.2728 76.574 85.3399 76.8903C85.407 77.2065 85.3632 77.5362 85.2159 77.824C84.8144 78.5903 84.3669 79.3317 83.876 80.044C83.3757 80.7655 82.8306 81.4549 82.244 82.108C81.6038 82.8288 80.8801 83.4706 80.088 84.02C79.5916 84.355 79.0537 84.6239 78.488 84.82C78.1232 84.9474 77.7445 85.0306 77.3599 85.068C76.8828 85.1103 76.4019 85.0752 75.9359 84.964C75.6636 84.8985 75.4068 84.7803 75.18 84.616L75.084 84.544C73.8553 83.6238 72.8208 82.4697 72.04 81.148C71.6746 80.5534 71.3466 79.9534 71.056 79.348C70.7653 78.7427 70.4986 78.1374 70.256 77.532C69.7931 76.3373 69.4004 75.1166 69.0799 73.876C68.9239 73.26 68.776 72.648 68.652 72.028C68.592 71.716 68.528 71.408 68.476 71.092C68.424 70.776 68.376 70.48 68.324 70.104C68.2314 69.3853 68.4211 68.6588 68.8532 68.0771C69.2852 67.4953 69.926 67.1038 70.6407 66.9846C71.3555 66.8655 72.0886 67.0281 72.6859 67.4383C73.2833 67.8484 73.6984 68.4742 73.844 69.184L73.8719 69.316Z" fill="#FFB573"/>
<path d="M70.0358 65.116C72.3638 65.356 74.2238 66.9 75.5238 71.816C74.5238 73.2 68.2238 76.236 68.2238 76.236C68.2238 76.236 64.7158 64.568 70.0358 65.116Z" fill="#263238"/>
</svg>
