<svg width="42" height="42" viewBox="0 0 42 42" fill="none" xmlns="http://www.w3.org/2000/svg">
<path d="M21 0L39.1865 10.5V31.5L21 42L2.81347 31.5V10.5L21 0Z" fill="#005BD8"/>
<path d="M9.44971 14.8207V28.2105L15.2758 31.4813V18.1937L26.7236 24.8375V31.4813L32.5497 28.2105V14.8207L26.7236 11.5499V18.1937L15.2758 11.5499L9.44971 14.8207Z" fill="white"/>
<path d="M9.45 14.7L2.625 10.5V31.5L21 42V21.525L15.225 18.1751V31.2603L9.45 28.1737V14.7Z" fill="#0248A8"/>
<path d="M21 0L2.625 10.5L9.45 15.225L15.225 11.55L26.775 18.375V11.55L32.55 15.225L39.375 10.5L21 0Z" fill="#154588"/>
<path d="M26.775 24.675L21 21.525V42L39.375 31.5V10.5L32.55 15.225V28.2241L26.775 30.975V24.675Z" fill="#005BD8"/>
</svg>
